<svg viewBox="0 0 400 400" xmlns="http://www.w3.org/2000/svg" class="w-20 h-20 fill-current text-gray-500">
<g transform="translate(0.000000,380.000000) scale(0.100000,-0.100000)" fill="#000000" stroke="none">
<path d="M1742 3710 c-201 -32 -370 -84 -541 -167 -861 -419 -1254 -1433 -901
-2324 218 -550 687 -957 1276 -1108 199 -51 476 -64 688 -31 204 32 371 82
541 165 933 454 1306 1590 823 2505 -244 462 -673 796 -1194 929 -195 50 -488
63 -692 31z m508 -35 c205 -29 372 -80 555 -171 513 -256 864 -725 973 -1299
24 -127 24 -493 0 -620 -107 -563 -445 -1023 -948 -1288 -499 -262 -1151 -262
-1650 0 -503 265 -841 725 -948 1288 -24 127 -24 493 0 620 36 187 103 381
185 535 270 504 766 852 1333 934 131 19 366 19 500 1z"></path>
<path d="M1942 3543 c-24 -5 -24 -6 -17 -86 l7 -82 -52 78 c-50 76 -53 78 -88
75 -21 -2 -37 -7 -37 -13 1 -5 4 -65 9 -132 l8 -123 34 0 c38 0 40 9 25 103
-4 26 -4 47 0 47 4 0 28 -31 54 -70 34 -51 52 -70 68 -70 40 0 52 16 48 62 -2
24 -6 81 -10 127 -6 86 -9 91 -49 84z"></path>
<path d="M2147 3522 c-35 -21 -67 -87 -67 -136 0 -44 21 -89 52 -110 26 -19
99 -21 116 -4 9 9 15 8 26 -7 24 -32 43 -12 53 57 5 35 7 66 4 70 -3 3 -31 8
-61 10 -51 3 -55 1 -58 -20 -3 -18 2 -23 29 -29 l32 -6 -22 -19 c-31 -24 -56
-23 -81 4 -31 34 -27 92 9 129 36 35 42 36 79 4 34 -29 82 -34 82 -9 0 9 -15
31 -34 50 -29 29 -40 34 -82 34 -29 0 -61 -8 -77 -18z"></path>
<path d="M1393 3418 c-29 -14 -29 -17 7 -90 17 -34 29 -63 26 -65 -2 -2 -34
19 -71 46 -37 28 -72 51 -76 51 -18 0 -59 -24 -59 -34 1 -6 23 -60 49 -121 44
-98 52 -110 72 -107 40 5 41 17 10 87 -17 37 -31 69 -31 71 0 3 32 -19 70 -47
52 -38 76 -49 93 -45 53 14 53 17 -3 145 -29 67 -56 121 -59 120 -3 0 -16 -5
-28 -11z"></path>
<path d="M2664 3371 c-64 -39 -98 -133 -70 -193 23 -46 61 -71 115 -75 60 -5
101 20 130 79 29 60 27 103 -5 146 -46 59 -115 77 -170 43z m104 -57 c43 -30
13 -136 -43 -150 -35 -9 -75 19 -75 52 0 33 24 79 52 98 28 20 38 20 66 0z"></path>
<path d="M2906 3129 c-76 -97 -78 -100 -61 -119 25 -27 36 -25 65 15 14 19 28
35 31 35 3 0 16 -12 30 -26 l24 -25 -24 -41 -23 -41 25 -24 24 -25 27 45 c14
25 26 55 26 66 0 16 6 21 24 21 29 0 66 42 66 74 0 11 -8 31 -18 43 -23 30
-114 103 -127 103 -5 -1 -45 -46 -89 -101z m162 -42 c-4 -29 -31 -33 -62 -10
-30 21 -31 30 -10 54 16 18 18 18 46 -2 19 -14 28 -28 26 -42z"></path>
<path d="M1016 3197 c-17 -14 -26 -29 -22 -35 4 -7 22 -65 40 -129 18 -64 36
-118 42 -120 5 -1 20 6 33 16 19 15 22 21 12 39 -9 17 -6 24 24 51 34 30 37
30 60 15 22 -14 26 -14 49 3 14 10 26 21 26 24 0 7 -218 159 -228 159 -4 0
-20 -11 -36 -23z m92 -86 c26 -23 28 -37 5 -45 -20 -8 -30 1 -38 37 -8 31 1
34 33 8z"></path>
<path d="M1805 3114 c-520 -93 -933 -511 -1011 -1024 -90 -597 258 -1169 825
-1359 365 -122 751 -70 1086 147 88 57 265 235 327 328 145 218 210 434 210
694 0 211 -39 375 -132 560 -138 274 -405 504 -702 606 -176 61 -422 80 -603
48z m465 -39 c246 -54 439 -163 617 -348 152 -158 249 -338 305 -566 31 -125
31 -398 1 -521 -110 -438 -395 -751 -808 -889 -771 -256 -1579 329 -1579 1144
1 486 274 906 721 1108 221 100 496 126 743 72z"></path>
<path d="M1935 2859 c-150 -69 -358 -131 -485 -145 -36 -4 -110 -8 -165 -9
-55 -1 -103 -3 -106 -4 -12 -3 -19 -1389 -8 -1443 12 -55 43 -111 75 -139 11
-9 174 -94 364 -189 190 -95 352 -179 361 -186 19 -17 45 -18 55 -3 4 6 153
84 333 172 398 196 425 212 454 275 22 47 22 48 25 773 l3 727 -158 4 c-99 4
-182 12 -223 22 -137 35 -269 80 -365 125 l-100 47 -60 -27z m147 -38 c219
-101 406 -149 613 -156 l120 -4 3 -211 2 -210 -278 0 -278 0 -18 33 c-54 94
-161 167 -246 167 -84 -1 -184 -67 -237 -157 l-25 -43 -274 0 -274 0 0 88 c0
49 3 150 7 225 l6 136 41 -5 c65 -9 280 14 381 41 107 28 240 76 304 110 25
13 51 24 58 24 6 1 49 -16 95 -38z m16 -430 c180 -92 248 -403 136 -622 -48
-96 -149 -169 -234 -169 -117 0 -229 112 -271 272 -54 205 26 443 176 521 43
23 146 22 193 -2z m596 -233 c5 -10 7 -10 12 0 3 6 14 12 25 12 18 0 19 -10
19 -210 l0 -210 -55 0 -55 0 0 194 c0 107 3 201 6 210 7 19 40 21 48 4z
m-1262 -128 c-3 -44 31 -80 78 -80 34 0 81 9 128 24 44 15 23 -20 -28 -44 -33
-16 -47 -27 -40 -34 6 -6 18 -5 35 2 31 14 35 15 35 4 0 -18 -50 -33 -71 -21
-13 7 -30 7 -47 1 -15 -5 -35 -6 -44 -3 -10 3 -48 5 -85 3 -37 -1 -79 -3 -92
-3 -25 -1 -49 16 -38 28 4 4 13 1 19 -5 14 -14 48 -16 48 -4 0 5 -26 26 -57
47 -32 22 -60 41 -63 43 -2 2 2 7 10 12 8 5 19 5 25 1 5 -5 27 -14 48 -21 35
-11 39 -10 70 16 17 15 31 31 29 37 -4 13 19 38 32 34 6 -2 10 -19 8 -37z
m1089 -257 c1 -60 4 -95 8 -78 l6 30 115 0 115 0 3 -118 3 -117 -156 1 -155 0
0 73 c0 77 -4 88 -26 79 -10 -4 -14 -25 -14 -79 l0 -74 -30 0 -30 0 0 195 0
195 80 0 80 0 1 -107z m-1236 37 c12 0 26 5 31 10 8 8 19 7 38 -1 21 -10 31
-10 51 1 20 10 28 11 37 2 16 -16 51 -15 67 1 11 10 13 9 9 -2 -8 -26 -35 -36
-65 -25 -19 7 -37 7 -56 0 -20 -8 -33 -7 -48 3 -15 9 -24 10 -32 2 -23 -23
-77 -6 -77 23 0 6 5 5 12 -2 7 -7 21 -12 33 -12z m-55 -45 c0 -8 -4 -15 -10
-15 -5 0 -10 7 -10 15 0 8 5 15 10 15 6 0 10 -7 10 -15z m240 -17 c16 -10 24
-10 41 1 18 10 26 11 45 0 18 -9 30 -10 49 -1 19 9 31 9 51 0 20 -9 30 -9 46
1 26 16 39 3 14 -15 -24 -17 -58 -18 -74 -2 -9 9 -15 9 -24 0 -15 -15 -50 -16
-64 -2 -8 8 -19 7 -37 -1 -29 -13 -77 0 -77 21 0 13 6 13 30 -2z m-240 -43 c0
-8 -4 -15 -10 -15 -5 0 -10 7 -10 15 0 8 5 15 10 15 6 0 10 -7 10 -15z m260
-17 c0 -7 14 -21 31 -31 36 -20 34 -41 -5 -45 -23 -3 -25 -6 -15 -18 15 -18 4
-31 -14 -16 -7 6 -35 10 -62 10 -51 -1 -125 17 -125 31 0 23 53 54 100 59 28
2 53 9 56 13 8 14 34 11 34 -3z m-220 -16 c0 -13 -12 -22 -22 -16 -10 6 -1 24
13 24 5 0 9 -4 9 -8z m326 -42 c-1 -16 -4 -30 -7 -30 -11 0 -19 29 -13 45 10
25 21 17 20 -15z m-315 -3 c-13 -13 -26 -3 -16 12 3 6 11 8 17 5 6 -4 6 -10
-1 -17z m410 1 c16 10 24 10 41 -2 16 -11 26 -12 40 -5 23 12 39 2 19 -11 -19
-11 -153 -10 -168 2 -23 19 -14 26 17 15 23 -9 35 -9 51 1z m700 -254 c214
-108 389 -200 389 -205 0 -16 -57 -51 -199 -120 -80 -40 -243 -120 -362 -179
l-215 -107 -285 143 c-156 79 -324 163 -374 187 -49 24 -96 51 -103 59 -11 14
13 30 195 126 114 61 237 125 273 144 36 18 67 35 70 38 9 9 205 109 213 110
5 0 184 -88 398 -196z m-978 131 c27 -11 37 -22 42 -47 6 -27 3 -35 -19 -53
-35 -28 -100 -27 -120 0 -15 20 -15 20 -30 0 -13 -18 -14 -17 -14 27 1 26 5
45 10 41 11 -6 78 27 78 39 0 12 13 10 53 -7z m127 -35 c0 -5 -5 -10 -11 -10
-5 0 -7 5 -4 10 3 6 8 10 11 10 2 0 4 -4 4 -10z m-30 -24 c0 -3 -4 -8 -10 -11
-5 -3 -10 -1 -10 4 0 6 5 11 10 11 6 0 10 -2 10 -4z"></path>
<path d="M1977 2252 c-18 -20 -23 -62 -7 -62 5 0 7 7 4 15 -4 8 -1 22 6 30 22
26 42 -1 35 -46 -6 -36 -5 -39 27 -53 32 -13 34 -13 67 20 26 27 36 32 47 23
10 -8 11 -16 3 -30 -5 -10 -13 -19 -17 -19 -4 0 -15 -7 -25 -14 -16 -12 -16
-16 -1 -51 15 -36 17 -37 53 -31 27 4 42 2 50 -8 16 -20 -3 -31 -54 -31 -36 0
-40 -3 -49 -34 -9 -32 -7 -36 23 -62 33 -27 35 -49 3 -49 -9 0 -25 14 -34 30
-20 35 -23 36 -65 11 -29 -18 -31 -23 -26 -59 6 -43 -8 -62 -33 -41 -9 7 -12
20 -8 32 4 13 2 17 -5 13 -17 -11 -13 -41 9 -61 20 -18 21 -18 40 1 16 16 18
25 11 52 -8 25 -7 32 5 32 8 0 14 4 14 9 0 5 8 11 19 14 13 3 24 -5 36 -25 13
-22 23 -28 43 -26 39 4 43 45 7 74 -26 20 -26 23 -13 50 10 20 20 28 33 25 40
-7 47 -6 62 16 13 20 13 23 -6 42 -17 17 -26 19 -41 11 -28 -15 -33 -13 -52
20 -17 30 -17 30 12 52 39 28 40 65 3 74 -21 6 -30 2 -45 -20 -17 -23 -47 -39
-34 -18 3 5 -8 6 -25 4 -31 -5 -34 2 -20 41 10 25 6 34 -20 54 -13 11 -19 10
-32 -5z"></path>
<path d="M2051 2204 c0 -11 3 -14 6 -6 3 7 2 16 -1 19 -3 4 -6 -2 -5 -13z"></path>
<path d="M1930 2196 c0 -9 5 -16 10 -16 6 0 10 4 10 9 0 6 -4 13 -10 16 -5 3
-10 -1 -10 -9z"></path>
<path d="M1818 2175 c-10 -23 -8 -28 20 -53 30 -25 31 -29 19 -52 -14 -28 -46
-38 -58 -19 -6 10 -12 9 -28 -5 -26 -24 -26 -38 -2 -60 15 -14 24 -15 38 -7
16 9 16 10 -5 11 -22 0 -41 25 -28 37 3 4 26 6 49 5 39 -3 43 0 55 30 11 30
10 34 -19 64 -30 31 -32 54 -6 54 7 0 21 -14 32 -30 11 -16 24 -30 28 -30 16
0 67 31 67 40 0 13 -27 13 -35 0 -4 -6 -11 -8 -16 -5 -5 4 -9 1 -9 -4 0 -20
-15 -11 -32 19 -21 38 -54 40 -70 5z"></path>
<path d="M1890 2196 c0 -2 7 -9 15 -16 13 -11 14 -10 9 4 -5 14 -24 23 -24 12z"></path>
<path d="M2080 2189 c0 -5 5 -7 10 -4 6 3 10 8 10 11 0 2 -4 4 -10 4 -5 0 -10
-5 -10 -11z"></path>
<path d="M2156 2104 c-11 -8 -16 -14 -10 -14 13 0 39 18 34 24 -3 2 -14 -2
-24 -10z"></path>
<path d="M1820 2100 c8 -5 20 -10 25 -10 6 0 3 5 -5 10 -8 5 -19 10 -25 10 -5
0 -3 -5 5 -10z"></path>
<path d="M1805 2070 c27 -12 43 -12 25 0 -8 5 -22 9 -30 9 -10 0 -8 -3 5 -9z"></path>
<path d="M2160 2070 c-18 -12 -2 -12 25 0 13 6 15 9 5 9 -8 0 -22 -4 -30 -9z"></path>
<path d="M1833 1986 c3 -8 -5 -19 -21 -26 -19 -9 -23 -14 -12 -18 7 -3 16 0
18 7 6 17 39 13 46 -6 4 -11 -4 -25 -25 -43 -27 -22 -30 -29 -21 -47 18 -33
46 -34 68 -2 18 28 47 38 58 20 10 -15 46 -20 46 -7 0 7 -18 19 -39 26 -39 13
-41 12 -66 -18 -15 -18 -32 -29 -40 -25 -23 8 -18 24 17 53 l32 27 -18 36
c-16 34 -55 55 -43 23z"></path>
<path d="M2150 1966 c0 -2 9 -6 20 -9 11 -3 18 -1 14 4 -5 9 -34 13 -34 5z"></path>
<path d="M1824 1925 c-10 -8 -14 -15 -8 -15 6 0 17 7 24 15 16 19 9 19 -16 0z"></path>
<path d="M2160 1925 c7 -8 17 -15 22 -15 6 0 5 7 -2 15 -7 8 -17 15 -22 15 -6
0 -5 -7 2 -15z"></path>
<path d="M1911 1849 c-7 -12 -10 -23 -8 -26 3 -3 11 5 17 17 6 12 10 23 8 25
-2 2 -10 -5 -17 -16z"></path>
<path d="M2080 1848 c0 -9 5 -20 10 -23 13 -8 13 5 0 25 -8 13 -10 13 -10 -2z"></path>
<path d="M2051 1834 c0 -11 3 -14 6 -6 3 7 2 16 -1 19 -3 4 -6 -2 -5 -13z"></path>
<path d="M1936 1831 c-4 -7 -5 -15 -2 -18 9 -9 19 4 14 18 -4 11 -6 11 -12 0z"></path>
<path d="M1340 1940 c0 -5 4 -10 9 -10 6 0 13 5 16 10 3 6 -1 10 -9 10 -9 0
-16 -4 -16 -10z"></path>
<path d="M2384 1767 c-3 -9 -1 -24 4 -33 9 -16 10 -15 17 5 8 27 -11 54 -21
28z"></path>
<path d="M2430 1755 c0 -14 5 -25 10 -25 6 0 10 11 10 25 0 14 -4 25 -10 25
-5 0 -10 -11 -10 -25z"></path>
<path d="M2477 1773 c-13 -12 -7 -43 8 -43 9 0 15 9 15 25 0 24 -10 32 -23 18z"></path>
<path d="M2550 1645 c0 -20 5 -25 25 -25 20 0 25 5 25 25 0 20 -5 25 -25 25
-20 0 -25 -5 -25 -25z"></path>
<path d="M2620 1645 c0 -20 5 -25 25 -25 20 0 25 5 25 25 0 20 -5 25 -25 25
-20 0 -25 -5 -25 -25z"></path>
<path d="M2697 1657 c-8 -21 8 -39 29 -35 27 5 25 42 -2 46 -12 2 -24 -3 -27
-11z"></path>
<path d="M2523 1565 c0 -33 2 -45 4 -27 2 18 2 45 0 60 -2 15 -4 0 -4 -33z"></path>
<path d="M1775 1438 c-2 -7 -5 -26 -7 -43 -2 -22 -9 -31 -25 -33 -40 -6 -64
-49 -62 -112 1 -32 -3 -64 -11 -76 -16 -26 -9 -48 24 -70 24 -15 28 -15 52 1
23 15 26 22 21 56 l-5 39 138 0 138 0 5 -29 c14 -70 92 -94 142 -44 24 24 26
33 21 70 -4 31 -2 41 7 38 139 -43 153 -49 181 -82 15 -19 30 -32 32 -30 2 2
-5 24 -16 49 l-19 45 -98 21 c-144 30 -165 33 -199 23 -17 -5 -43 -7 -58 -4
-23 5 -26 10 -26 43 0 39 29 79 37 53 3 -7 11 -13 20 -13 8 0 13 3 11 8 -24
50 -33 62 -44 62 -7 0 -11 -6 -8 -13 10 -28 -22 -38 -117 -35 l-94 3 -3 43
c-2 29 -8 42 -18 42 -8 0 -17 -6 -19 -12z m25 -33 c0 -19 -4 -35 -10 -35 -11
0 -14 53 -3 63 11 12 13 8 13 -28z m186 -97 c3 -29 -13 -37 -33 -17 -7 7 -44
12 -82 13 l-71 1 0 -42 c0 -41 -1 -41 -41 -48 -47 -8 -62 1 -35 21 15 10 16
14 5 15 -10 0 -10 2 -1 6 17 7 15 43 -3 43 -18 0 -19 12 -3 28 9 9 49 12 137
10 l124 -3 3 -27z m174 -88 c24 -24 25 -38 4 -68 -18 -26 -50 -28 -76 -5 -25
22 -23 59 4 77 30 21 44 20 68 -4z m-425 -70 c0 -16 -6 -26 -18 -28 -19 -4
-32 20 -23 44 9 25 41 13 41 -16z"></path>
<path d="M2186 1338 c-15 -22 -26 -28 -57 -28 -58 0 -56 -18 3 -22 62 -4 81 8
76 47 l-3 30 -19 -27z"></path>
<path d="M1514 1078 c20 -29 20 -36 -1 -41 -10 -2 -2 -4 17 -4 19 -1 53 -4 75
-7 49 -8 75 5 56 28 -17 20 -71 47 -71 35 0 -5 5 -9 10 -9 6 0 10 -7 10 -15 0
-17 -16 -20 -25 -6 -6 11 -63 41 -77 41 -5 0 -2 -10 6 -22z"></path>
<path d="M2400 1089 c0 -5 5 -7 10 -4 6 3 10 8 10 11 0 2 -4 4 -10 4 -5 0 -10
-5 -10 -11z"></path>
<path d="M2465 1090 c3 -5 -3 -10 -14 -10 -11 0 -24 -8 -30 -17 -9 -17 -11
-17 -24 1 -12 16 -16 17 -35 5 -14 -9 -20 -20 -16 -31 6 -21 -11 -25 -19 -4
-9 22 -77 26 -99 4 -10 -10 -27 -18 -37 -18 -11 0 -34 -15 -52 -32 -17 -18
-28 -27 -24 -19 5 9 3 12 -6 9 -8 -2 -20 -17 -28 -32 -11 -24 -11 -30 0 -37 7
-4 10 -12 5 -16 -5 -4 -11 -2 -13 5 -3 6 -11 12 -19 12 -9 0 -11 6 -7 18 6 14
4 15 -8 5 -8 -6 -16 -26 -17 -42 -2 -27 1 -31 21 -31 34 0 83 40 65 52 -9 7
-8 8 6 4 12 -4 30 2 50 17 17 13 41 27 54 31 13 5 21 13 19 20 -3 8 4 11 22 8
16 -2 34 2 42 10 8 8 20 13 27 10 7 -2 23 2 35 10 14 9 46 13 86 12 58 -1 63
0 46 12 -16 12 -18 18 -7 34 11 18 10 20 -9 20 -11 0 -17 -4 -14 -10z m-198
-56 c-3 -3 -12 -4 -19 -1 -8 3 -5 6 6 6 11 1 17 -2 13 -5z m-57 -54 c0 -5 -4
-10 -10 -10 -5 0 -10 5 -10 10 0 6 5 10 10 10 6 0 10 -4 10 -10z m-69 -43
c-13 -13 -26 -3 -16 12 3 6 11 8 17 5 6 -4 6 -10 -1 -17z"></path>
<path d="M1440 1070 c0 -5 15 -10 33 -10 24 0 28 3 17 10 -20 13 -50 13 -50 0z"></path>
<path d="M1678 1068 c5 -5 16 -8 23 -6 8 3 3 7 -10 11 -17 4 -21 3 -13 -5z"></path>
<path d="M2310 1070 c-8 -5 -10 -10 -5 -10 6 0 17 5 25 10 8 5 11 10 5 10 -5
0 -17 -5 -25 -10z"></path>
<path d="M2515 1070 c-4 -6 8 -10 29 -10 20 0 36 5 36 10 0 6 -13 10 -29 10
-17 0 -33 -4 -36 -10z"></path>
<path d="M1677 1030 c-22 -26 -21 -32 1 -29 23 3 136 -43 152 -62 3 -3 24 -18
47 -32 23 -14 44 -31 47 -36 4 -5 20 -12 36 -16 32 -7 38 -23 18 -44 -10 -10
-8 -10 11 0 19 11 25 11 28 2 3 -7 8 -13 13 -13 4 0 3 11 -3 25 -7 14 -18 25
-24 25 -8 0 -13 12 -13 29 0 42 -23 57 -40 26 -7 -14 -17 -25 -22 -25 -11 0
-10 28 2 32 17 6 -14 52 -45 67 -17 8 -34 20 -38 28 -4 7 -13 13 -18 13 -6 0
-7 -4 -4 -10 8 -14 2 -13 -31 5 -16 8 -22 15 -14 15 13 0 13 1 0 10 -8 5 -22
10 -30 10 -13 0 -13 -1 0 -10 9 -6 10 -10 3 -10 -6 0 -15 5 -18 10 -10 16 -39
11 -58 -10z m138 -50 c3 -5 1 -10 -4 -10 -6 0 -11 5 -11 10 0 6 2 10 4 10 3 0
8 -4 11 -10z m78 -50 c9 -11 13 -20 9 -20 -10 1 -42 26 -42 34 0 12 16 6 33
-14z"></path>
<path d="M1358 1473 c6 -2 18 -2 25 0 6 3 1 5 -13 5 -14 0 -19 -2 -12 -5z"></path>
<path d="M1402 1450 c0 -19 2 -27 5 -17 2 9 2 25 0 35 -3 9 -5 1 -5 -18z"></path>
<path d="M1310 1451 c0 -10 29 -36 34 -30 1 2 -6 12 -16 22 -10 9 -18 13 -18
8z"></path>
<path d="M842 3047 c-27 -28 -27 -40 -2 -94 10 -24 16 -43 11 -43 -4 0 -29 7
-55 16 -46 16 -48 16 -72 -7 -13 -12 -24 -26 -24 -29 0 -4 39 -16 88 -26 70
-15 94 -26 125 -53 36 -33 38 -33 57 -16 27 24 25 31 -13 65 -27 23 -39 48
-61 120 -15 49 -28 90 -30 90 -1 0 -12 -10 -24 -23z"></path>
<path d="M3157 2905 c-65 -23 -121 -46 -124 -49 -4 -3 4 -17 17 -31 17 -19 27
-22 41 -15 25 14 25 14 54 -24 22 -29 24 -37 14 -59 -10 -22 -8 -30 9 -52 l21
-26 14 23 c12 17 108 176 133 219 6 10 -36 59 -49 58 -7 0 -65 -20 -130 -44z
m72 -74 c-17 -24 -26 -28 -36 -20 -21 18 -15 34 20 51 40 19 45 8 16 -31z"></path>
<path d="M585 2717 l-18 -34 83 -107 c46 -58 87 -106 92 -106 4 0 14 11 20 25
9 19 8 31 -1 48 -11 20 -9 29 9 60 18 31 26 35 48 31 22 -4 30 0 44 26 21 36
28 32 -112 60 -58 12 -114 23 -126 26 -15 4 -25 -3 -39 -29z m145 -72 c0 -7
-6 -18 -13 -24 -10 -8 -20 -4 -40 17 -15 16 -25 31 -22 34 10 10 75 -14 75
-27z"></path>
<path d="M3395 2711 c-28 -16 -80 -45 -118 -65 -60 -33 -66 -39 -56 -57 17
-33 36 -33 96 4 32 20 59 34 61 32 2 -1 -19 -38 -46 -80 -49 -77 -49 -78 -33
-106 9 -16 20 -29 24 -29 11 0 200 101 215 115 11 10 12 17 2 36 -7 13 -14 25
-15 27 -3 4 -98 -49 -118 -66 -35 -31 -26 -3 24 71 50 72 51 77 39 107 -7 17
-16 32 -19 34 -4 3 -29 -8 -56 -23z"></path>
<path d="M476 2477 c-22 -23 -65 -120 -69 -159 -2 -16 16 -26 108 -59 61 -21
116 -38 124 -37 17 4 61 120 61 162 0 21 -8 40 -23 54 -24 23 -71 29 -82 12
-4 -6 -18 2 -35 20 -34 36 -53 38 -84 7z m64 -79 c0 -16 -14 -53 -25 -66 -2
-2 -13 1 -24 7 -17 10 -19 15 -10 38 6 15 15 33 20 40 14 17 39 5 39 -19z
m100 -33 c0 -13 -4 -35 -10 -49 -9 -24 -12 -25 -35 -14 -22 10 -25 16 -20 37
14 57 65 76 65 26z"></path>
<path d="M3457 2378 c-116 -39 -118 -41 -112 -67 3 -14 10 -29 13 -33 9 -9
252 75 252 86 0 14 -21 56 -27 55 -5 0 -61 -19 -126 -41z"></path>
<path d="M3377 1463 c-17 -16 -3 -32 42 -52 28 -11 52 -25 55 -30 3 -5 -27
-12 -67 -16 -39 -3 -75 -12 -79 -18 -16 -24 -7 -38 35 -56 23 -10 62 -28 86
-39 24 -12 48 -19 52 -16 23 14 4 37 -48 61 -58 26 -58 27 -28 34 17 3 48 7
71 8 22 0 45 6 52 13 14 14 16 48 2 48 -5 0 -42 16 -81 35 -77 37 -82 39 -92
28z"></path>
<path d="M555 1403 c-44 -20 -82 -38 -84 -40 -8 -6 44 -125 57 -130 26 -11 30
13 10 55 -11 23 -19 44 -17 46 2 2 36 20 76 40 53 26 71 40 67 51 -8 21 -18
19 -109 -22z"></path>
<path d="M645 1219 c-110 -26 -110 -26 -95 -44 6 -7 23 -15 36 -17 15 -2 32
-15 42 -30 14 -23 14 -31 3 -51 -13 -24 -9 -47 8 -47 13 0 131 156 131 172 0
17 -20 38 -34 37 -6 -1 -47 -10 -91 -20z m53 -59 c-26 -36 -29 -36 -46 -10
-11 18 -10 22 10 30 13 5 31 9 41 9 16 1 15 -2 -5 -29z"></path>
<path d="M3254 1213 c-8 -8 -14 -19 -14 -24 0 -18 131 -179 141 -173 12 7 11
31 -3 53 -15 25 25 85 52 76 17 -5 48 20 37 31 -3 3 -49 16 -102 29 -84 20
-98 21 -111 8z m109 -52 c11 -10 -2 -41 -17 -41 -7 0 -23 14 -35 31 l-23 31
33 -7 c19 -4 38 -10 42 -14z"></path>
<path d="M748 1043 l-76 -65 41 -54 c23 -30 47 -54 54 -54 25 0 23 22 -6 57
l-31 37 27 28 c15 15 42 38 60 50 32 22 42 58 18 64 -5 1 -45 -27 -87 -63z"></path>
<path d="M3134 1039 c-15 -17 -13 -24 37 -113 30 -53 59 -94 64 -92 6 1 10 21
10 43 0 50 27 85 60 77 18 -5 56 20 44 29 -2 2 -48 19 -101 39 -94 34 -98 35
-114 17z m84 -47 c30 -17 31 -19 17 -37 -15 -20 -16 -19 -40 10 -40 48 -33 56
23 27z"></path>
<path d="M3001 896 c-50 -50 -59 -76 -26 -76 7 0 15 7 19 15 6 16 32 21 38 6
2 -4 25 -32 51 -61 44 -49 49 -52 64 -37 14 14 11 21 -41 75 -31 32 -56 62
-56 66 0 4 10 16 22 25 21 18 18 41 -5 41 -7 0 -37 -24 -66 -54z"></path>
<path d="M885 889 c-93 -50 -115 -76 -59 -72 41 3 94 -48 74 -72 -10 -12 -10
-18 0 -30 7 -8 16 -15 20 -15 4 0 26 45 50 101 42 98 42 101 24 119 -18 17
-22 16 -109 -31z m75 -14 c0 -13 -31 -65 -39 -65 -10 0 -36 29 -30 34 37 29
69 43 69 31z"></path>
<path d="M1030 741 c-44 -137 -29 -156 55 -71 27 27 51 48 53 45 2 -2 -10 -34
-28 -71 -30 -64 -31 -69 -14 -81 14 -10 20 -10 33 0 91 75 141 121 141 128 0
5 -7 12 -16 16 -10 4 -32 -11 -65 -43 -27 -26 -49 -43 -49 -37 0 6 12 37 26
69 24 55 25 59 8 71 -16 12 -24 8 -66 -34 -26 -26 -50 -44 -53 -41 -3 3 6 31
20 63 20 44 23 60 14 71 -6 8 -15 14 -20 14 -4 0 -22 -45 -39 -99z"></path>
<path d="M2857 773 c-14 -17 -13 -26 12 -118 30 -104 53 -131 59 -68 4 41 54
82 77 63 16 -13 45 -7 45 9 0 7 -163 131 -174 131 -1 0 -10 -8 -19 -17z m71
-62 c26 -23 28 -37 5 -45 -20 -8 -30 1 -38 37 -8 31 1 34 33 8z"></path>
<path d="M2675 660 c-27 -16 -50 -33 -50 -37 0 -7 83 -173 90 -181 4 -5 78 40
103 61 30 28 29 70 -3 95 -14 11 -25 29 -25 39 0 23 -30 53 -51 52 -8 0 -36
-13 -64 -29z m75 -35 c0 -18 -45 -49 -60 -40 -16 10 -12 33 8 44 25 15 52 13
52 -4z m45 -78 c0 -10 -13 -26 -28 -35 -27 -16 -29 -16 -43 2 -19 26 -18 31 9
44 32 16 62 10 62 -11z"></path>
<path d="M1285 630 c-14 -28 -34 -66 -45 -85 -24 -43 -25 -61 -5 -69 11 -4 27
18 60 84 50 99 51 105 30 114 -11 4 -22 -9 -40 -44z"></path>
<path d="M1392 594 c-31 -22 -52 -66 -52 -113 0 -51 47 -96 92 -87 21 4 28 2
28 -9 0 -8 6 -15 14 -15 12 0 46 71 46 97 0 10 -50 33 -71 33 -16 0 -10 -29 7
-38 22 -12 9 -32 -21 -32 -37 0 -58 28 -51 68 11 73 68 95 106 42 23 -32 50
-40 50 -14 0 26 -19 53 -50 69 -37 19 -70 19 -98 -1z"></path>
<path d="M2378 544 c-35 -19 -48 -43 -48 -91 0 -95 96 -156 155 -97 8 9 22 13
30 10 8 -3 17 -1 20 4 7 11 -14 98 -26 105 -4 3 -25 -1 -45 -10 -29 -12 -34
-18 -25 -29 7 -8 21 -12 31 -9 26 7 26 -11 0 -37 -25 -25 -45 -25 -70 0 -28
28 -36 69 -19 99 17 31 43 38 76 20 19 -10 26 -10 36 0 9 10 7 16 -12 32 -28
23 -66 24 -103 3z"></path>
<path d="M1596 450 c-32 -49 -55 -94 -51 -100 10 -16 31 -12 46 10 12 18 18
19 52 10 27 -8 37 -16 37 -31 0 -19 25 -37 36 -26 5 5 -13 208 -19 213 -1 1
-11 4 -23 8 -18 6 -29 -6 -78 -84z m74 -10 c0 -40 -11 -49 -38 -31 -10 6 -9
14 5 39 24 42 33 40 33 -8z"></path>
<path d="M1796 502 c-3 -5 -8 -55 -12 -111 -7 -98 -6 -103 12 -99 15 2 20 16
26 62 4 32 10 61 12 64 3 2 19 -28 37 -67 22 -50 37 -71 50 -71 25 0 26 3 34
113 7 92 6 97 -13 97 -17 0 -21 -9 -27 -66 -4 -36 -10 -62 -14 -58 -4 5 -18
34 -30 64 -27 65 -60 97 -75 72z"></path>
<path d="M2236 468 c3 -24 7 -53 10 -65 7 -38 -10 -26 -55 38 -56 79 -76 78
-75 -6 1 -102 13 -157 32 -153 18 4 21 34 10 101 -4 20 -3 37 1 37 4 0 26 -27
49 -60 39 -55 72 -75 85 -52 3 5 -16 181 -22 200 -1 1 -10 2 -21 2 -18 0 -20
-5 -14 -42z"></path>
</g>
</svg>